<?xml version="1.0" standalone="no"?>
<!DOCTYPE svg PUBLIC "-//W3C//DTD SVG 20010904//EN"
 "http://www.w3.org/TR/2001/REC-SVG-20010904/DTD/svg10.dtd">
<svg version="1.0" xmlns="http://www.w3.org/2000/svg"
 width="500.000000pt" height="500.000000pt" viewBox="0 0 500.000000 500.000000"
 preserveAspectRatio="xMidYMid meet">

<g transform="translate(0.000000,500.000000) scale(0.100000,-0.100000)"
fill="#000000" stroke="none">
<path d="M203 4653 c15 -2 37 -2 50 0 12 2 0 4 -28 4 -27 0 -38 -2 -22 -4z"/>
<path d="M298 4653 c7 -3 16 -2 19 1 4 3 -2 6 -13 5 -11 0 -14 -3 -6 -6z"/>
<path d="M353 4653 c9 -2 25 -2 35 0 9 3 1 5 -18 5 -19 0 -27 -2 -17 -5z"/>
<path d="M438 4653 c6 -2 18 -2 25 0 6 3 1 5 -13 5 -14 0 -19 -2 -12 -5z"/>
<path d="M503 4653 c15 -2 39 -2 55 0 15 2 2 4 -28 4 -30 0 -43 -2 -27 -4z"/>
<path d="M230 4621 c0 -15 6 -21 21 -21 14 0 19 5 17 17 -5 26 -38 29 -38 4z"/>
<path d="M461 4613 c0 -10 2 -13 5 -8 2 6 47 9 109 9 58 -1 105 2 105 7 0 5
-49 9 -110 9 -98 0 -110 -2 -109 -17z"/>
<path d="M412 4555 c-11 -12 -10 -15 3 -15 8 0 15 7 15 15 0 18 -2 18 -18 0z"/>
<path d="M348 4543 c6 -2 18 -2 25 0 6 3 1 5 -13 5 -14 0 -19 -2 -12 -5z"/>
<path d="M668 4508 c9 -9 15 -9 24 0 9 9 7 12 -12 12 -19 0 -21 -3 -12 -12z"/>
<path d="M728 4513 c7 -3 16 -2 19 1 4 3 -2 6 -13 5 -11 0 -14 -3 -6 -6z"/>
<path d="M755 4500 c-3 -5 -1 -10 4 -10 6 0 11 5 11 10 0 6 -2 10 -4 10 -3 0
-8 -4 -11 -10z"/>
<path d="M680 4480 c0 -5 7 -7 15 -4 8 4 15 8 15 10 0 2 -7 4 -15 4 -8 0 -15
-4 -15 -10z"/>
<path d="M740 4470 c-13 -8 -12 -10 3 -10 9 0 17 5 17 10 0 12 -1 12 -20 0z"/>
<path d="M688 4453 c7 -3 16 -2 19 1 4 3 -2 6 -13 5 -11 0 -14 -3 -6 -6z"/>
<path d="M735 4440 c-3 -5 -1 -10 4 -10 6 0 11 5 11 10 0 6 -2 10 -4 10 -3 0
-8 -4 -11 -10z"/>
<path d="M695 4430 c-3 -5 1 -10 9 -10 9 0 16 5 16 10 0 6 -4 10 -9 10 -6 0
-13 -4 -16 -10z"/>
<path d="M631 4296 c-7 -8 -27 -17 -45 -20 -34 -6 -47 -22 -45 -54 0 -12 3
-10 10 6 5 14 26 30 48 39 22 9 42 22 45 29 7 18 2 18 -13 0z"/>
<path d="M246 4275 c4 -8 7 -15 9 -15 2 0 5 7 9 15 3 9 0 15 -9 15 -9 0 -12
-6 -9 -15z"/>
<path d="M335 4240 c3 -5 8 -10 11 -10 2 0 4 5 4 10 0 6 -5 10 -11 10 -5 0 -7
-4 -4 -10z"/>
<path d="M240 4231 c0 -6 5 -13 10 -16 6 -3 10 1 10 9 0 9 -4 16 -10 16 -5 0
-10 -4 -10 -9z"/>
<path d="M250 4165 c0 -9 5 -15 11 -13 6 2 11 8 11 13 0 5 -5 11 -11 13 -6 2
-11 -4 -11 -13z"/>
<path d="M431 4134 c0 -11 3 -14 6 -6 3 7 2 16 -1 19 -3 4 -6 -2 -5 -13z"/>
<path d="M560 4125 c0 -8 14 -23 30 -35 17 -12 30 -19 30 -16 0 2 -13 18 -30
34 -17 18 -30 25 -30 17z"/>
<path d="M212 4121 c-11 -7 -11 -9 2 -14 10 -4 16 -1 16 8 0 17 -1 17 -18 6z"/>
<path d="M330 4110 c0 -5 5 -10 10 -10 6 0 10 5 10 10 0 6 -4 10 -10 10 -5 0
-10 -4 -10 -10z"/>
<path d="M215 4061 c-3 -5 -1 -12 5 -16 5 -3 10 1 10 9 0 18 -6 21 -15 7z"/>
<path d="M560 3845 l-4 -110 -3 103 c-2 56 -7 102 -11 102 -4 0 -7 -54 -7
-120 l0 -120 55 2 c43 1 47 2 18 5 -21 2 -38 8 -38 13 0 5 17 11 38 13 l37 4
-37 1 -37 2 -4 108 -3 107 -4 -110z"/>
<path d="M670 3825 l0 -125 53 2 c35 1 42 2 20 5 -18 2 -33 8 -33 13 0 5 15
11 33 13 l32 4 -33 1 c-31 2 -33 4 -30 35 2 26 7 32 26 31 12 -1 22 3 22 7 0
5 -13 9 -30 9 -28 0 -30 -2 -30 -40 0 -22 -4 -40 -10 -40 -5 0 -10 20 -10 45
l0 45 48 2 c36 1 39 2 15 5 -30 4 -33 7 -33 38 0 31 3 34 33 38 31 4 31 4 -5
5 l-38 2 0 -42 c0 -30 -3 -39 -11 -31 -6 6 -9 28 -7 49 3 38 4 39 48 45 l45 6
-52 1 -53 2 0 -125z m30 -105 c0 -5 -5 -10 -11 -10 -5 0 -7 5 -4 10 3 6 8 10
11 10 2 0 4 -4 4 -10z"/>
<path d="M833 3943 c20 -2 37 -8 37 -14 0 -5 -17 -10 -37 -10 -23 -1 -29 -3
-16 -6 21 -4 23 -10 26 -111 l3 -107 2 108 c1 61 6 107 12 107 5 0 11 -47 13
-107 l3 -108 2 107 c2 102 3 107 25 111 l22 4 -22 2 c-13 0 -23 5 -23 10 0 5
10 12 23 14 12 2 -7 4 -43 4 -36 0 -48 -2 -27 -4z"/>
<path d="M1002 3937 c-12 -7 -30 -24 -39 -37 -23 -33 -23 -117 0 -151 17 -26
72 -57 83 -47 3 3 -8 10 -25 16 -88 31 -89 171 -1 214 19 9 28 17 20 17 -8 0
-25 -5 -38 -12z"/>
<path d="M1083 3825 c0 -77 3 -114 7 -90 6 40 15 35 23 -15 3 -17 5 -14 6 13
1 25 6 37 15 37 10 0 16 -13 19 -37 l4 -38 1 43 2 42 -37 1 -38 2 39 6 40 6
-3 70 c-3 93 -11 97 -11 7 0 -59 -3 -70 -15 -66 -11 5 -15 25 -17 78 l-2 71
-3 -65 c-5 -98 -17 -105 -23 -15 -6 69 -6 62 -7 -50z"/>
<path d="M1184 3825 c0 -71 1 -99 3 -62 2 37 2 96 0 130 -2 34 -3 4 -3 -68z"/>
<path d="M1239 3938 c-1 -7 -2 -64 -3 -125 l-2 -113 51 1 c47 2 48 2 15 9 -35
6 -30 13 15 23 12 3 7 5 -13 6 -31 1 -33 3 -30 34 2 25 8 32 25 32 12 0 26 4
30 9 4 4 -8 6 -27 4 -32 -3 -35 -6 -41 -43 l-6 -40 -2 48 -1 47 43 1 c38 1 39
2 12 8 -25 5 -31 12 -33 38 -3 29 -1 32 30 36 l33 4 -37 1 c-36 2 -37 1 -41
-40 -3 -42 -4 -41 -5 9 l-2 52 43 4 42 4 -47 1 c-32 1 -48 -2 -49 -10z"/>
<path d="M1401 3898 c12 -29 25 -64 29 -78 6 -21 9 -22 15 -8 4 9 -1 27 -11
43 -9 14 -14 28 -11 32 4 3 11 -6 16 -21 13 -32 25 -35 16 -3 -4 12 -19 32
-33 44 -21 18 -23 23 -10 23 42 0 73 -84 48 -131 -8 -14 -6 -29 10 -62 16 -33
19 -35 13 -12 -4 17 -6 58 -5 92 3 72 -7 97 -48 118 -47 24 -51 18 -29 -37z"/>
<path d="M1590 3910 c-1 -25 -4 -72 -6 -105 -2 -33 -1 -71 3 -85 6 -20 9 -12
13 35 l7 60 1 -60 c2 -40 5 -55 11 -46 5 8 7 20 4 28 -9 24 6 14 21 -14 26
-47 18 -9 -11 53 -15 33 -30 86 -33 119 -7 59 -7 59 -10 15z"/>
<path d="M1611 3915 c-1 -38 67 -221 77 -210 3 3 -7 34 -23 71 l-28 65 23 50
c13 27 21 51 18 54 -3 3 -13 -15 -22 -40 -10 -25 -22 -43 -27 -39 -5 3 -2 18
6 34 17 34 20 65 3 35 -11 -19 -11 -19 -19 0 -6 15 -8 9 -8 -20z"/>
<path d="M1729 3948 c-1 -2 -2 -58 -4 -125 l-2 -123 51 1 c47 2 49 2 16 9 -35
6 -30 13 15 23 12 3 7 5 -12 6 -29 1 -33 4 -33 30 0 28 22 47 40 36 5 -3 12 0
15 6 5 7 -4 9 -26 7 -31 -3 -35 -6 -40 -43 l-6 -40 -2 48 -1 47 43 1 c38 1 39
2 12 8 -25 5 -31 12 -33 38 -3 29 -1 32 30 36 l33 4 -37 1 c-36 2 -37 1 -41
-40 -3 -42 -4 -41 -5 9 l-2 52 43 4 42 4 -47 1 c-27 1 -49 1 -49 0z"/>
<path d="M1890 3845 l-4 -110 -3 103 c-2 56 -8 102 -13 102 -5 0 -8 -53 -7
-120 l2 -120 55 2 c43 1 47 2 18 5 -21 2 -38 8 -38 13 0 5 17 11 38 13 l37 4
-37 1 -37 2 -4 108 -3 107 -4 -110z"/>
<path d="M2002 3828 l-2 -128 58 2 c42 1 47 2 20 5 -21 2 -38 8 -38 13 0 5 17
11 38 13 l37 4 -37 1 -37 2 -4 108 -3 107 -2 -107 c-1 -62 -6 -108 -12 -108
-5 0 -11 47 -13 108 l-3 107 -2 -127z m28 -108 c0 -5 -5 -10 -11 -10 -5 0 -7
5 -4 10 3 6 8 10 11 10 2 0 4 -4 4 -10z"/>
<path d="M2136 3903 c9 -26 19 -84 24 -128 l7 -80 1 74 c2 89 15 85 23 -7 l6
-67 1 71 c1 39 9 94 18 123 8 29 13 55 11 57 -2 3 -10 -16 -17 -41 -7 -24 -16
-42 -21 -40 -4 3 -3 20 2 38 12 42 10 59 -3 27 l-10 -25 -9 24 c-5 13 -12 22
-14 19 -3 -3 -1 -17 5 -32 12 -33 13 -59 1 -52 -5 3 -12 21 -15 41 -4 19 -11
37 -16 40 -5 3 -2 -16 6 -42z"/>
<path d="M2252 3930 c0 -14 2 -19 5 -12 2 6 2 18 0 25 -3 6 -5 1 -5 -13z"/>
<path d="M2282 3930 c0 -14 2 -19 5 -12 2 6 2 18 0 25 -3 6 -5 1 -5 -13z"/>
<path d="M2339 3943 c-24 -6 -43 -48 -35 -77 4 -16 23 -35 50 -51 43 -25 51
-44 28 -67 -9 -9 -18 -9 -38 1 -24 11 -26 10 -14 -3 18 -23 57 -20 70 5 16 28
7 44 -39 73 -44 28 -57 55 -42 85 16 28 48 35 76 17 34 -22 45 -19 16 4 -23
19 -39 22 -72 13z"/>
<path d="M2584 3940 c-12 -4 -31 -21 -44 -37 -18 -23 -21 -37 -18 -86 5 -63
29 -99 78 -112 22 -6 21 -4 -6 13 -45 29 -64 60 -64 107 0 47 19 79 64 106 32
20 27 24 -10 9z"/>
<path d="M2682 3846 c-1 -60 -4 -107 -6 -105 -3 3 -6 48 -7 102 -1 53 -5 97
-10 97 -5 0 -8 -54 -7 -120 l2 -120 55 2 c43 1 47 2 19 5 -21 2 -38 8 -38 13
0 5 17 11 38 13 l37 4 -37 1 -37 2 -4 108 -3 107 -2 -109z"/>
<path d="M2818 3939 c-10 -5 -18 -15 -18 -21 0 -6 9 -3 20 7 16 15 25 16 44 7
28 -13 40 -66 32 -145 -5 -53 -19 -77 -45 -77 -37 1 -45 18 -52 107 l-6 88 -1
-82 c-2 -71 1 -86 18 -103 24 -24 49 -25 76 -6 16 12 19 27 19 104 0 74 -3 94
-19 111 -21 23 -41 26 -68 10z"/>
<path d="M2946 3942 c-2 -4 -3 -55 -1 -112 2 -86 6 -106 21 -117 23 -17 45
-17 70 1 17 13 19 28 20 128 l1 113 -6 -106 c-6 -109 -17 -139 -51 -139 -32 0
-39 24 -41 133 -1 104 -3 115 -13 99z"/>
<path d="M2974 3845 l1 -110 25 0 25 0 1 105 0 105 -3 -103 c-3 -91 -6 -103
-21 -100 -14 3 -18 20 -23 108 l-5 105 0 -110z"/>
<path d="M3102 3838 c2 -67 7 -112 13 -110 5 2 12 -5 16 -15 5 -16 9 -14 37
13 40 40 50 91 28 147 -15 40 -56 77 -85 77 -8 0 -11 -34 -9 -112z m55 77 c31
-22 47 -87 33 -129 -11 -33 -50 -79 -50 -59 0 6 7 16 15 23 33 28 26 140 -10
154 -12 4 -15 -9 -15 -80 0 -54 -4 -83 -10 -79 -5 3 -10 46 -10 96 0 95 5 103
47 74z m7 -89 c1 -25 -5 -51 -11 -57 -11 -10 -13 1 -13 56 0 52 3 66 12 57 6
-6 11 -31 12 -56z"/>
<path d="M3305 3825 l0 -125 50 2 c36 1 41 2 18 5 -18 2 -33 8 -33 13 0 5 15
11 33 13 l32 4 -33 1 c-31 2 -33 4 -30 35 2 26 7 32 26 31 12 -1 22 3 22 8 0
5 -12 8 -27 6 -24 -3 -29 -9 -34 -43 l-6 -40 -2 48 -1 47 43 1 c38 1 39 2 12
8 -25 5 -31 12 -33 38 -3 29 -1 32 30 36 l33 4 -37 1 c-36 2 -37 1 -41 -40 -3
-42 -4 -41 -5 9 l-2 52 43 4 c42 3 42 4 -8 5 l-51 2 1 -125z"/>
<path d="M3449 3949 c-7 -20 -5 -249 2 -249 5 0 10 48 11 108 l2 107 6 -110
c5 -93 7 -100 9 -45 2 36 3 73 2 83 -1 9 2 17 7 17 15 0 25 -30 32 -100 5 -52
7 -38 7 65 0 72 -2 117 -6 101 l-6 -30 -13 28 c-7 16 -15 26 -19 23 -3 -4 4
-22 16 -42 11 -20 21 -44 21 -53 0 -9 -14 7 -30 37 -31 56 -39 68 -41 60z"/>
<path d="M3554 3825 c0 -71 1 -99 3 -62 2 37 2 96 0 130 -2 34 -3 4 -3 -68z"/>
<path d="M3648 3934 c-98 -53 -61 -234 48 -234 10 0 14 13 12 53 -1 35 -2 42
-5 20 -2 -18 -9 -33 -15 -33 -5 0 -8 6 -5 13 2 6 1 21 -4 32 -6 17 -8 15 -9
-10 l-1 -30 -19 24 c-30 35 -26 86 9 122 16 16 25 29 20 29 -6 0 -21 -11 -34
-25 -35 -34 -35 -102 1 -144 31 -37 17 -42 -17 -5 -19 20 -24 36 -24 79 0 43
5 59 24 79 14 14 30 26 37 26 7 0 16 5 19 10 9 14 -5 12 -37 -6z m52 -214 c0
-5 -4 -10 -10 -10 -5 0 -10 5 -10 10 0 6 5 10 10 10 6 0 10 -4 10 -10z"/>
<path d="M3773 3943 c15 -2 27 -9 27 -14 0 -5 -12 -9 -27 -10 -16 0 -22 -3
-15 -6 8 -3 12 -31 12 -89 0 -60 -4 -84 -12 -84 -9 -1 -8 -4 2 -10 9 -4 31 -5
50 0 19 4 27 8 18 9 -16 1 -18 12 -18 85 0 72 3 85 18 89 16 4 16 5 0 6 -10 0
-18 5 -18 10 0 5 8 12 18 14 9 3 -5 5 -33 4 -27 0 -38 -2 -22 -4z m27 -118 c0
-50 -4 -85 -10 -85 -6 0 -10 35 -10 85 0 50 4 85 10 85 6 0 10 -35 10 -85z"/>
<path d="M3877 3943 c-7 -13 0 -233 8 -241 3 -4 5 42 3 101 -2 59 0 107 5 107
4 0 8 -48 9 -107 2 -103 2 -104 5 -25 5 118 30 108 43 -18 5 -52 7 -38 7 65 0
74 -3 117 -7 100 -4 -16 -5 -43 -3 -60 3 -24 -2 -19 -27 28 -31 58 -35 63 -43
50z"/>
<path d="M3910 3944 c0 -5 7 -19 15 -30 8 -10 15 -14 15 -8 0 5 -7 19 -15 30
-8 10 -15 14 -15 8z"/>
<path d="M3984 3825 c0 -71 1 -99 3 -62 2 37 2 96 0 130 -2 34 -3 4 -3 -68z"/>
<path d="M4030 3825 l0 -125 53 2 c35 1 42 2 20 5 -18 2 -33 8 -33 13 0 5 15
11 33 13 l32 4 -33 1 c-31 2 -33 4 -30 35 2 26 7 32 26 31 12 0 22 3 22 8 0 4
-13 8 -30 8 -28 0 -30 -2 -30 -40 0 -22 -4 -40 -10 -40 -5 0 -10 20 -10 45 l0
45 43 1 c29 2 34 3 15 6 -24 4 -28 9 -28 38 0 31 3 34 33 38 31 4 31 4 -5 5
-37 2 -38 1 -38 -32 0 -19 -4 -38 -10 -41 -6 -4 -10 13 -10 44 l0 50 48 4 47
3 -52 2 -53 2 0 -125z m30 -105 c0 -5 -4 -10 -10 -10 -5 0 -10 5 -10 10 0 6 5
10 10 10 6 0 10 -4 10 -10z"/>
<path d="M4170 3825 l0 -125 53 2 c35 1 42 2 20 5 -18 2 -33 8 -33 13 0 5 15
11 33 13 l32 4 -33 1 c-31 2 -33 4 -30 35 2 26 7 32 26 30 12 -2 22 2 22 7 0
6 -13 10 -30 10 -28 0 -30 -2 -30 -40 0 -22 -4 -40 -10 -40 -5 0 -10 20 -10
45 l0 45 43 1 c29 2 34 3 15 6 -24 4 -28 9 -28 38 0 31 3 34 33 38 31 4 31 4
-5 5 -37 2 -38 1 -38 -32 0 -19 -4 -38 -10 -41 -6 -4 -10 13 -10 44 l0 50 48
4 47 3 -52 2 -53 2 0 -125z m30 -105 c0 -5 -4 -10 -10 -10 -5 0 -10 5 -10 10
0 6 5 10 10 10 6 0 10 -4 10 -10z"/>
<path d="M4320 3941 c0 -5 11 -34 25 -66 14 -32 23 -60 20 -63 -6 -6 -5 -8
-32 48 l-22 45 1 -105 2 -105 5 80 c7 91 20 80 22 -18 1 -34 4 -50 6 -34 5 34
16 35 32 1 6 -15 14 -24 17 -21 8 7 -23 64 -38 69 -8 3 -4 12 10 26 30 30 28
73 -3 102 -27 25 -27 34 -1 24 9 -4 24 -20 32 -37 13 -24 14 -37 4 -71 -9 -34
-8 -48 5 -80 9 -21 18 -36 21 -33 3 2 -3 21 -12 40 -14 30 -15 41 -6 62 20 44
14 75 -22 111 -32 32 -66 45 -66 25z m55 -72 c10 -30 0 -33 -13 -4 -6 14 -7
25 -2 25 5 0 12 -9 15 -21z"/>
<path d="M4473 3943 c15 -2 27 -9 27 -14 0 -5 -12 -10 -27 -10 -17 -1 -21 -3
-10 -6 14 -4 17 -17 17 -88 0 -71 -3 -84 -17 -88 -17 -4 -17 -5 0 -6 9 0 17
-5 17 -10 0 -5 -8 -12 -17 -14 -10 -3 5 -5 32 -4 28 0 38 2 23 4 -16 2 -28 9
-28 14 0 5 12 9 28 10 15 0 21 3 15 6 -9 3 -13 31 -13 89 0 60 4 84 13 84 8 0
7 4 -3 10 -13 9 -13 11 0 20 11 7 1 9 -35 8 -29 0 -38 -3 -22 -5z m37 -118 c0
-50 -4 -85 -10 -85 -6 0 -10 35 -10 85 0 50 4 85 10 85 6 0 10 -35 10 -85z"/>
<path d="M4581 3823 c2 -146 7 -138 11 20 2 59 0 107 -4 107 -5 0 -7 -57 -7
-127z"/>
<path d="M4620 3940 c0 -8 9 -28 20 -45 21 -32 25 -45 12 -45 -5 0 -16 16 -26
36 -9 20 -18 35 -19 33 -1 -2 0 -53 3 -114 l4 -110 6 85 c5 81 6 84 20 60 8
-14 17 -52 21 -85 4 -43 6 -23 6 70 0 72 -2 117 -6 100 l-7 -30 -17 30 c-9 17
-16 23 -17 15z"/>
<path d="M4680 3825 c0 -82 4 -124 10 -120 6 4 10 55 10 120 0 65 -4 116 -10
120 -6 4 -10 -38 -10 -120z"/>
<path d="M4771 3924 c-17 -14 -36 -43 -42 -64 -23 -75 31 -160 101 -160 18 0
20 6 18 53 -1 35 -2 42 -5 20 -2 -18 -8 -33 -14 -33 -5 0 -10 15 -10 33 l-2
32 -6 -34 c-6 -32 -7 -32 -22 -15 -41 47 -34 115 14 145 20 12 26 19 15 19
-23 0 -68 -56 -68 -85 0 -36 18 -78 43 -98 20 -16 20 -18 3 -15 -31 5 -59 52
-59 101 0 51 20 84 66 109 19 10 25 17 15 18 -9 0 -30 -12 -47 -26z"/>
<path d="M276 3920 c-34 -21 -61 -66 -47 -75 12 -7 24 12 16 25 -3 6 1 10 9
10 9 0 16 7 16 15 0 8 9 15 20 15 11 0 20 7 20 15 0 18 2 18 -34 -5z"/>
<path d="M320 3930 c0 -5 7 -10 15 -10 8 0 15 5 15 10 0 6 -7 10 -15 10 -8 0
-15 -4 -15 -10z"/>
<path d="M365 3920 c3 -5 10 -10 16 -10 5 0 9 5 9 10 0 6 -7 10 -16 10 -8 0
-12 -4 -9 -10z"/>
<path d="M1012 3913 c-18 -7 -42 -57 -42 -88 0 -33 24 -81 45 -89 34 -13 39
-5 8 13 -56 34 -55 118 1 152 28 17 20 25 -12 12z"/>
<path d="M2343 3913 c-22 -8 -15 -51 10 -64 69 -36 89 -94 41 -125 -24 -16
-28 -16 -62 0 l-37 16 24 -20 c39 -33 93 -21 111 26 14 35 -3 69 -50 100 -22
15 -40 32 -40 39 0 17 25 26 47 18 11 -4 14 -3 9 5 -7 12 -31 14 -53 5z"/>
<path d="M2587 3909 c-30 -17 -48 -71 -37 -109 11 -37 37 -70 56 -70 7 0 -1
13 -17 29 -21 22 -29 39 -29 66 0 27 8 44 29 66 30 30 30 36 -2 18z"/>
<path d="M2825 3907 c-3 -7 -5 -49 -3 -93 3 -77 4 -79 28 -79 25 0 25 1 25 90
0 86 -1 90 -23 93 -12 2 -24 -3 -27 -11z m40 -82 c0 -68 -3 -80 -17 -83 -16
-3 -18 6 -18 83 0 77 2 86 18 83 14 -3 17 -15 17 -83z"/>
<path d="M400 3900 c0 -6 7 -13 15 -16 8 -4 15 -12 15 -20 0 -8 5 -14 10 -14
14 0 13 7 -6 35 -17 26 -34 33 -34 15z"/>
<path d="M294 3886 c-10 -8 -16 -18 -11 -22 4 -4 13 -2 19 4 14 14 54 16 62 3
4 -5 0 -12 -6 -14 -7 -3 -8 -6 -3 -6 6 0 17 4 25 9 13 9 12 12 -4 25 -25 19
-57 19 -82 1z"/>
<path d="M1374 3801 c1 -109 15 -133 18 -30 l2 74 6 -75 c4 -41 7 -63 8 -47 3
35 28 36 36 1 4 -15 10 -24 13 -21 8 9 -17 67 -29 67 -5 0 -8 6 -6 13 3 15
-32 107 -41 107 -4 0 -7 -40 -7 -89z"/>
<path d="M260 3811 c0 -30 29 -71 50 -71 15 0 12 8 -10 30 -11 11 -20 29 -20
39 0 11 -4 23 -10 26 -6 4 -10 -7 -10 -24z"/>
<path d="M399 3835 c-1 -6 -1 -17 0 -26 1 -9 -10 -26 -24 -37 -30 -23 -19 -38
12 -17 25 17 38 64 24 78 -7 7 -11 7 -12 2z"/>
<path d="M220 3814 c0 -8 5 -12 10 -9 6 3 10 10 10 16 0 5 -4 9 -10 9 -5 0
-10 -7 -10 -16z"/>
<path d="M440 3814 c0 -8 5 -12 10 -9 6 3 10 10 10 16 0 5 -4 9 -10 9 -5 0
-10 -7 -10 -16z"/>
<path d="M220 3781 c0 -5 11 -23 25 -38 19 -22 24 -24 25 -10 0 9 -6 17 -14
17 -8 0 -13 7 -12 16 0 9 -5 19 -11 21 -7 3 -13 0 -13 -6z"/>
<path d="M350 3779 c0 -5 5 -7 10 -4 6 3 10 8 10 11 0 2 -4 4 -10 4 -5 0 -10
-5 -10 -11z"/>
<path d="M430 3774 c0 -8 5 -12 10 -9 6 3 10 10 10 16 0 5 -4 9 -10 9 -5 0
-10 -7 -10 -16z"/>
<path d="M400 3734 c0 -8 -4 -13 -9 -9 -5 3 -13 1 -16 -5 -4 -6 -15 -8 -25 -5
-10 3 -21 1 -25 -5 -4 -6 6 -10 24 -10 33 0 101 49 69 50 -10 0 -18 -7 -18
-16z"/>
<path d="M286 3722 c-3 -6 -1 -14 5 -17 15 -10 25 3 12 16 -7 7 -13 7 -17 1z"/>
<path d="M3773 3703 c15 -2 37 -2 50 0 12 2 0 4 -28 4 -27 0 -38 -2 -22 -4z"/>
<path d="M2814 3411 c-61 -20 -85 -37 -124 -86 -29 -36 -40 -62 -21 -51 11 7
131 -102 131 -119 0 -8 -9 -17 -20 -20 -25 -8 -60 3 -60 18 0 12 -81 69 -88
62 -11 -11 11 -52 38 -70 35 -24 38 -40 8 -56 -18 -10 -24 -8 -38 12 -17 21
-18 22 -23 3 -3 -14 -5 -15 -6 -3 -1 19 -27 32 -43 22 -6 -3 -8 -1 -5 4 4 6
-11 15 -35 21 -37 10 -48 8 -97 -16 -31 -15 -55 -32 -54 -39 2 -8 -6 -9 -27
-3 -43 12 -46 -5 -5 -30 19 -12 35 -26 35 -31 0 -5 7 -9 16 -9 11 0 13 6 9 19
-12 40 90 84 145 63 14 -5 28 -9 32 -8 14 2 38 -42 32 -58 -8 -22 -30 -20 -56
4 -26 24 -55 25 -94 5 -31 -16 -27 -18 43 -18 28 0 35 -5 55 -47 18 -36 31
-51 58 -60 49 -18 109 -59 147 -100 40 -43 41 -56 6 -65 -21 -5 -32 -2 -44 14
-10 12 -22 21 -28 21 -5 0 -14 6 -18 13 -13 23 -62 50 -78 43 -8 -3 -15 0 -16
7 0 7 -4 3 -8 -8 -10 -25 -5 -35 18 -35 23 0 105 -76 96 -89 -7 -13 -52 -15
-57 -3 -6 16 -81 55 -109 57 -16 2 -27 0 -25 -4 2 -3 -6 -7 -17 -7 -32 -2 -90
-27 -108 -46 -16 -18 -50 -25 -48 -10 1 4 0 10 -1 15 -1 4 -3 12 -4 18 0 7
-11 16 -24 20 -14 5 -21 5 -17 0 10 -16 -13 -22 -39 -10 -27 13 -35 43 -13 53
9 5 9 7 -1 12 -7 3 -26 17 -42 30 -24 21 -35 23 -69 18 -23 -4 -41 -9 -41 -13
0 -3 -4 -12 -9 -20 -8 -12 -12 -12 -25 -2 -29 24 -19 51 27 71 23 11 51 20 62
20 18 0 18 2 -5 20 -15 11 -33 17 -45 14 -38 -10 -85 -39 -85 -51 0 -17 -21
-17 -44 0 -16 12 -16 14 6 37 13 14 35 31 51 37 32 15 34 28 7 43 -16 9 -26 6
-53 -14 -18 -14 -43 -37 -55 -51 -18 -21 -26 -24 -37 -15 -8 6 -19 9 -25 5 -5
-3 -10 1 -10 10 0 24 93 112 139 132 23 10 41 24 41 32 0 8 -3 11 -6 8 -4 -3
-15 5 -26 18 -11 14 -27 25 -36 25 -13 0 -14 2 -4 9 21 13 -27 22 -51 10 -18
-10 -18 -11 5 -26 50 -34 62 -67 27 -76 -15 -4 -28 2 -45 22 -23 28 -81 51
-128 51 -33 0 -122 -44 -134 -66 -7 -13 -13 -14 -31 -5 -28 15 -27 25 7 57 39
38 160 83 177 66 8 -8 45 -10 45 -3 0 4 -7 16 -15 29 -32 45 -163 6 -247 -74
-32 -30 -43 -35 -68 -29 -16 4 -30 11 -30 16 0 15 -45 3 -48 -13 -2 -8 3 -15
10 -15 29 0 118 -26 118 -34 0 -5 8 -9 18 -9 22 0 122 -92 122 -113 0 -7 -11
-19 -24 -25 -22 -10 -29 -6 -69 32 -69 66 -108 81 -207 81 -81 0 -88 -2 -142
-37 -31 -20 -62 -46 -68 -57 -7 -14 -21 -21 -41 -21 -48 0 -47 26 1 75 37 38
65 55 158 98 12 6 40 11 62 11 44 1 46 3 26 29 -10 13 -15 15 -18 5 -4 -11 -8
-11 -21 0 -9 8 -14 19 -11 27 5 13 -54 40 -64 30 -3 -3 0 -5 6 -5 7 0 12 -6
12 -14 0 -8 10 -22 22 -30 l21 -15 -27 -11 c-40 -15 -45 -13 -83 25 -19 19
-39 35 -45 35 -5 0 -6 5 -3 10 9 14 -1 12 -38 -7 l-32 -17 30 -7 c17 -4 26 -7
20 -8 -5 -1 5 -11 23 -22 35 -23 40 -40 17 -59 -13 -11 -20 -9 -43 13 -15 14
-39 30 -54 36 -23 9 -29 7 -42 -15 -16 -23 -16 -24 7 -24 27 0 67 -38 67 -63
0 -23 -26 -21 -57 3 -30 24 -53 26 -53 5 0 -8 6 -15 14 -15 21 0 46 -28 46
-51 0 -10 -7 -19 -15 -19 -8 0 -15 4 -15 9 0 17 -34 22 -46 7 -6 -9 -17 -16
-24 -16 -12 0 -11 14 6 69 l7 24 -31 -19 c-23 -13 -35 -15 -43 -7 -15 15 -2
50 21 56 28 7 36 35 16 55 -10 10 -16 12 -16 4 0 -7 -5 -12 -10 -12 -6 0 -23
-11 -38 -25 -29 -27 -40 -28 -55 -3 -11 17 11 44 56 67 32 17 34 27 7 41 -17
9 -27 6 -54 -17 -19 -15 -40 -38 -47 -51 -9 -16 -18 -21 -33 -16 -45 14 -48
24 -14 66 17 22 42 45 55 51 l24 11 -23 13 c-13 7 -39 12 -58 11 l-35 0 30 -8
c17 -4 22 -8 11 -9 -14 -1 -16 -4 -7 -14 8 -10 7 -18 -2 -31 -12 -16 -15 -15
-41 9 -25 23 -35 26 -69 21 -21 -4 -46 -13 -54 -21 -9 -9 -24 -13 -39 -9 -31
8 -30 -1 1 -32 29 -29 31 -40 9 -48 -30 -11 -53 -6 -65 15 -10 20 -11 20 -23
2 -13 -19 -16 -80 -4 -75 4 2 22 9 40 16 78 32 137 40 194 28 79 -16 152 -53
202 -102 49 -48 51 -74 7 -78 -24 -2 -34 4 -50 28 -11 16 -26 30 -32 30 -7 0
-13 4 -13 8 0 19 -79 44 -150 49 -68 4 -80 2 -130 -24 -37 -19 -55 -35 -56
-48 -1 -11 -5 -29 -9 -40 -6 -19 -6 -18 12 2 10 12 38 32 63 45 83 42 221 20
275 -44 31 -36 31 -44 3 -51 -15 -4 -29 1 -42 14 -48 53 -172 67 -229 27 -18
-12 -37 -29 -43 -36 -8 -11 -15 -12 -31 -4 -20 11 -33 7 -33 -10 0 -5 4 -6 10
-3 9 6 120 -99 120 -114 0 -5 -14 -11 -31 -15 -27 -5 -30 -8 -19 -21 7 -9 16
-12 19 -8 9 12 30 15 112 15 64 1 85 -4 140 -30 73 -35 155 -112 146 -136 -12
-29 -59 -19 -90 19 -39 49 -107 78 -194 83 -44 3 -73 0 -73 -6 0 -20 32 -35
88 -39 34 -3 68 -12 84 -24 15 -10 31 -19 36 -19 12 0 52 -44 52 -58 0 -7 -9
-12 -20 -12 -11 0 -20 -6 -20 -12 -1 -7 -7 -2 -15 12 -11 20 -14 21 -15 7 0
-10 5 -27 10 -38 11 -19 11 -19 31 0 12 11 28 17 38 14 9 -4 13 -3 9 2 -11 12
30 30 100 44 72 14 153 3 221 -30 49 -23 127 -97 140 -133 9 -22 16 -24 104
-28 83 -4 101 -9 141 -34 25 -16 46 -32 46 -36 0 -16 38 -7 56 13 23 26 74 49
109 49 25 0 84 -25 95 -40 15 -21 56 -17 106 10 29 15 75 31 101 35 36 5 54
14 71 36 18 22 20 29 9 29 -9 0 -24 -12 -35 -27 l-19 -27 -8 23 c-8 28 18 71
44 71 31 0 51 -11 44 -24 -3 -6 4 -2 16 9 l23 20 -29 12 c-39 17 -53 16 -92
-8 -18 -11 -40 -18 -48 -15 -21 9 -12 49 15 62 14 7 19 14 13 18 -6 4 -20 2
-32 -5 -15 -8 -19 -8 -15 0 11 18 -16 13 -29 -6 -14 -19 -45 -12 -45 10 0 8
14 28 32 45 26 26 29 34 18 47 -11 13 -14 13 -30 -5 -9 -11 -19 -17 -22 -14
-3 3 -15 -8 -27 -25 -12 -17 -28 -28 -36 -26 -8 3 -22 7 -30 10 -20 6 -6 36
37 79 37 39 36 56 -2 56 -16 0 -30 -5 -30 -11 0 -6 7 -8 16 -5 11 4 10 -2 -7
-25 -16 -22 -24 -27 -30 -18 -11 18 -46 21 -53 4 -3 -8 0 -12 7 -9 14 5 40
-33 32 -46 -10 -16 -35 -12 -42 6 -5 14 -8 15 -17 3 -6 -8 -21 -15 -33 -16
-18 -2 -23 2 -23 22 0 13 7 28 16 33 13 7 14 13 6 28 -11 18 -11 18 -12 1 0
-10 -4 -16 -9 -12 -5 3 -11 -1 -13 -9 -2 -10 -9 -11 -25 -5 -29 11 -31 49 -3
56 11 3 20 9 20 14 0 5 7 9 15 9 18 0 19 11 2 34 -11 16 -16 14 -54 -19 -36
-30 -46 -34 -63 -25 -25 13 -26 38 -2 47 9 4 24 14 32 24 8 9 23 18 32 20 16
4 16 6 0 27 l-18 23 -49 -45 c-27 -25 -56 -48 -65 -51 -20 -6 -50 3 -50 16 0
18 45 71 78 94 25 17 29 24 17 28 -8 4 -15 2 -15 -4 0 -6 -12 -1 -26 10 -17
14 -41 21 -68 21 l-41 0 34 -18 c49 -24 61 -47 36 -66 -18 -14 -22 -13 -37 7
-22 29 -103 32 -123 4 -14 -20 -52 -19 -48 1 2 6 -4 9 -12 6 -18 -7 -4 -39 25
-54 30 -16 24 -36 -12 -46 -28 -9 -34 -7 -43 11 -13 26 -36 26 -45 0 -5 -14 0
-27 16 -45 13 -14 24 -19 24 -12 0 7 5 10 11 6 6 -3 15 -1 19 5 12 21 146 34
204 20 70 -16 95 -30 158 -88 31 -28 58 -47 62 -44 4 4 3 -4 -2 -17 -15 -40
-48 -37 -95 9 -22 22 -57 46 -76 52 -20 6 -42 16 -49 22 -19 15 -172 3 -183
-14 -7 -12 -9 -12 -9 0 0 8 -3 11 -7 8 -3 -4 2 -15 13 -25 15 -13 38 -17 109
-17 80 0 95 -3 130 -26 49 -32 69 -55 60 -69 -10 -16 -44 -12 -68 10 -35 34
-106 50 -163 38 -27 -6 -51 -13 -54 -17 -23 -28 -59 -51 -73 -45 -30 11 -15
47 30 72 12 7 13 13 4 30 -13 24 -46 19 -37 -5 3 -8 2 -11 -4 -8 -5 3 -20 -6
-33 -21 -17 -18 -32 -25 -52 -22 -44 5 -41 24 13 77 34 33 46 53 40 59 -6 6
-17 8 -26 5 -9 -4 -13 -2 -9 4 11 18 -44 38 -102 38 -63 -1 -114 -12 -107 -23
2 -4 -20 -9 -49 -10 -31 -1 -57 2 -60 9 -10 16 53 77 94 90 42 14 110 16 166
4 22 -5 43 -8 48 -7 4 1 7 -5 7 -13 0 -24 39 -7 40 17 0 15 -76 49 -125 54
-63 8 -174 -12 -182 -33 -3 -7 -12 -13 -19 -13 -8 0 -17 -7 -20 -15 -4 -8 -13
-15 -20 -15 -8 0 -20 -11 -26 -25 -13 -29 -17 -30 -51 -12 -26 13 -26 13 -7
42 36 55 111 106 197 133 71 22 212 -2 272 -46 28 -21 30 -21 53 -3 12 10 42
28 66 40 23 12 40 26 37 31 -4 6 3 7 17 1 13 -4 32 -5 43 -1 11 4 27 5 35 2 8
-3 12 -2 8 3 -13 13 -112 14 -143 0 -16 -8 -41 -23 -55 -35 l-25 -21 25 11
c22 10 23 9 8 -3 -25 -20 -62 -15 -66 10 -4 28 51 67 121 88 53 15 62 15 125
0 54 -13 77 -25 108 -55 39 -39 79 -51 101 -29 6 6 40 12 75 14 64 4 128 -9
198 -41 40 -18 130 -102 130 -120 0 -7 -14 -16 -31 -19 -26 -6 -35 -3 -53 17
-32 38 -87 73 -132 86 -45 13 -128 15 -157 3 -17 -6 -17 -8 4 -26 13 -12 19
-14 14 -5 -8 13 -7 13 8 1 10 -8 17 -9 17 -3 0 15 97 -1 142 -24 32 -17 78
-64 78 -80 0 -22 28 -23 67 -3 29 14 61 20 121 20 71 0 89 -3 146 -31 65 -30
160 -114 153 -135 -2 -5 -18 -11 -36 -13 -25 -3 -37 2 -48 18 -16 23 -80 67
-128 88 -30 13 -154 15 -175 2 -9 -6 -9 -13 1 -31 7 -13 14 -19 16 -14 2 7 30
10 66 9 67 -2 140 -29 168 -61 22 -25 31 -53 17 -53 -6 0 -8 -3 -5 -6 4 -4 26
0 49 9 86 33 139 39 203 26 33 -7 70 -19 83 -27 23 -15 24 -15 20 14 -2 22 -7
28 -22 26 -26 -5 -66 6 -66 19 0 10 87 99 97 99 3 0 17 8 31 19 15 10 44 24
64 30 46 15 185 16 203 1 9 -8 14 -6 18 9 3 11 2 20 -2 19 -25 -3 -30 3 -21
28 11 28 5 37 -42 68 -34 22 -86 15 -113 -14 -15 -17 -19 -17 -32 -4 -20 19
-11 40 29 64 42 26 88 25 139 -1 37 -18 41 -23 35 -49 -3 -16 -1 -32 4 -35 6
-3 10 1 10 10 0 9 5 13 10 10 6 -3 10 1 10 9 0 9 5 16 10 16 6 0 22 11 36 25
15 15 30 22 41 18 12 -5 14 -3 8 7 -5 8 -3 11 6 8 8 -3 28 0 44 7 43 17 171
11 205 -10 20 -12 52 -14 70 -4 8 5 11 9 6 9 -5 0 6 14 23 31 39 36 94 62 136
61 l30 0 -30 10 c-16 5 -37 12 -45 15 -8 4 -19 5 -25 4 -5 -2 -14 -4 -20 -5
-24 -4 -73 -40 -91 -67 -13 -20 -27 -29 -47 -29 -39 0 -45 25 -14 54 21 20 23
25 11 30 -9 3 -20 3 -26 0 -5 -3 -17 1 -26 9 -26 24 -69 31 -102 17 -17 -7
-30 -16 -30 -21 0 -15 -37 -10 -43 5 -7 18 20 56 39 56 8 0 14 5 14 10 0 13
66 13 90 0 23 -12 30 -3 23 31 -4 22 -10 26 -50 28 -51 2 -97 -16 -136 -54
-21 -22 -29 -25 -46 -15 -28 15 -26 24 12 56 66 56 163 80 218 53 11 -6 22 -2
35 12 17 19 17 20 -4 26 -12 3 -19 10 -16 17 3 6 -2 2 -10 -8 -10 -13 -16 -15
-16 -7 0 11 -15 12 -67 8 -78 -6 -116 -23 -175 -78 -42 -39 -62 -46 -87 -30
-17 11 -7 29 48 86 52 54 123 83 215 87 70 3 78 11 48 48 l-17 21 -27 -20
c-29 -23 -44 -14 -33 19 4 12 16 20 28 21 21 0 21 1 2 9 -30 13 -57 12 -49 -1
5 -9 -1 -10 -20 -5 -32 8 -32 3 -5 -36 18 -25 19 -32 8 -39 -23 -14 -42 -10
-82 16 -20 14 -42 23 -49 19 -6 -4 -8 -3 -5 3 24 39 -140 71 -219 44z m155
-31 c25 -13 34 -13 26 0 -3 6 -1 10 5 10 6 0 10 -6 8 -13 -2 -8 12 -26 30 -41
36 -31 41 -51 14 -58 -12 -3 -33 7 -56 27 -25 22 -53 35 -82 39 -73 10 -108
-2 -166 -56 -10 -10 -24 -18 -32 -18 -22 0 -30 38 -12 56 9 8 16 12 16 8 0 -4
9 3 19 15 37 42 175 61 230 31z m-20 -100 c46 -23 54 -39 34 -62 -14 -15 -17
-15 -50 8 -44 30 -55 30 -104 2 -37 -21 -40 -21 -56 -5 -11 11 -13 17 -5 17 7
0 11 5 10 11 -4 16 62 49 100 49 18 0 50 -9 71 -20z m-2260 -92 c20 -35 10
-44 -30 -24 -22 11 -36 13 -43 6 -18 -18 -46 -12 -39 8 17 49 87 56 112 10z
m2243 9 c20 -32 -1 -56 -27 -30 -16 15 -19 15 -45 -1 -18 -10 -31 -13 -35 -6
-10 16 4 48 23 54 26 7 75 -3 84 -17z m35 -82 c78 -26 125 -54 170 -103 44
-47 45 -58 10 -71 -17 -6 -29 0 -60 30 -63 65 -109 83 -207 83 -98 1 -142 -17
-208 -84 -22 -21 -43 -36 -47 -32 -3 4 -12 7 -18 7 -26 0 -16 35 20 72 91 95
228 134 340 98z m-1141 -21 c50 -24 60 -40 39 -64 -15 -17 -19 -17 -32 -4 -38
38 -96 41 -135 7 -21 -19 -51 -9 -46 14 5 26 67 63 105 63 19 0 50 -7 69 -16z
m-22 -80 c20 -19 21 -54 2 -54 -8 0 -18 5 -21 10 -3 6 -15 10 -26 10 -10 0
-19 -4 -19 -10 0 -5 -9 -10 -20 -10 -24 0 -26 18 -4 48 18 26 65 30 88 6z
m1496 -6 c23 -25 22 -41 -3 -46 -10 -2 -17 3 -17 12 0 9 -8 16 -20 16 -11 0
-20 -4 -20 -10 0 -5 -9 -10 -20 -10 -25 0 -27 35 -2 49 28 17 60 12 82 -11z
m-283 -33 c45 -32 55 -47 47 -68 -6 -17 -44 -19 -44 -3 0 8 -8 17 -17 20 -10
3 -29 13 -43 21 -56 33 -191 7 -218 -41 -11 -20 -39 -13 -49 12 -7 18 17 40
77 74 29 16 51 20 120 18 76 -3 89 -6 127 -33z m-2308 -77 c25 -13 41 -29 41
-40 0 -28 -23 -31 -68 -8 -44 23 -77 20 -109 -10 -16 -14 -22 -15 -36 -5 -23
16 -21 27 6 52 40 38 107 42 166 11z m1459 -54 c-4 -3 2 -14 13 -25 23 -23 24
-38 3 -46 -10 -4 -20 0 -26 10 -11 21 -34 22 -42 2 -8 -21 -36 -19 -36 3 0 25
11 38 45 50 35 12 51 15 43 6z m-1481 -31 c6 -8 9 -21 6 -29 -7 -19 -32 -18
-39 1 -4 8 -12 15 -19 15 -7 0 -15 -7 -19 -15 -7 -18 -46 -20 -46 -2 0 17 21
43 40 50 22 9 63 -2 77 -20z m750 5 c18 -15 16 -37 -3 -45 -10 -4 -20 0 -26
10 -11 21 -34 22 -46 2 -5 -10 -15 -13 -25 -9 -24 9 -21 19 10 44 28 22 63 21
90 -2z m1483 2 c11 -11 20 -24 20 -29 0 -19 -23 -24 -35 -8 -15 21 -45 22 -45
1 0 -9 -7 -14 -17 -12 -27 5 -22 41 7 55 34 17 47 16 70 -7z m-1863 -102 c40
-18 63 -40 63 -59 0 -27 -23 -28 -55 -3 -38 30 -79 31 -109 1 -23 -23 -24 -23
-47 -6 -24 18 -24 18 -4 33 11 9 24 16 28 16 5 0 15 7 23 15 19 18 63 19 101
3z m1524 -11 c38 -25 43 -44 16 -61 -13 -8 -20 -8 -25 0 -10 16 -48 34 -70 34
-10 0 -32 -12 -47 -26 l-29 -27 -18 23 c-18 22 -18 23 4 39 64 46 119 52 169
18z m-1529 -74 c20 -18 24 -53 6 -53 -6 0 -20 8 -31 17 -18 17 -19 17 -32 0
-17 -24 -35 -21 -35 6 0 46 55 64 92 30z m1489 7 c11 -6 19 -21 19 -35 0 -29
-17 -33 -35 -8 -13 17 -14 17 -32 0 -39 -34 -58 -13 -27 31 16 24 44 28 75 12z
m-1297 -26 c3 -8 2 -12 -4 -9 -6 3 -10 10 -10 16 0 14 7 11 14 -7z m630 -79
c87 -32 153 -80 186 -137 9 -14 5 -19 -22 -26 -30 -8 -36 -5 -76 34 -49 49
-131 84 -193 84 -67 0 -159 -37 -202 -81 -29 -30 -45 -39 -65 -37 -44 5 -39
34 15 84 55 51 116 81 188 93 80 14 96 12 169 -14z m-432 -9 c42 -18 62 -41
54 -61 -7 -19 -30 -19 -46 0 -20 24 -99 20 -128 -7 -23 -22 -24 -22 -37 -5
-19 27 -8 46 39 67 51 23 74 24 118 6z m-21 -76 c23 -13 26 -60 4 -60 -7 0
-18 7 -23 15 -8 16 -42 11 -42 -6 0 -12 -27 -12 -34 0 -9 14 34 61 55 61 11 0
29 -5 40 -10z m459 -33 c19 -12 45 -31 57 -43 19 -19 20 -24 9 -40 -8 -10 -19
-14 -27 -11 -24 11 -53 31 -64 44 -5 6 -29 16 -52 22 -55 15 -125 -4 -163 -42
-24 -24 -31 -27 -49 -18 -12 7 -21 16 -21 21 0 15 43 51 85 71 57 27 177 25
225 -4z"/>
<path d="M1568 3294 c-13 -6 -36 -17 -51 -23 -17 -7 -27 -17 -24 -24 7 -17
-19 -52 -28 -37 -9 15 -25 3 -25 -20 0 -33 27 -29 61 11 19 22 52 49 74 61 98
52 95 49 53 46 -21 -1 -48 -7 -60 -14z"/>
<path d="M3382 3198 c-7 -7 -12 -16 -12 -22 0 -5 3 -6 7 -3 3 4 12 -1 19 -11
16 -23 76 -19 67 5 -3 8 -12 12 -21 8 -9 -3 -13 -3 -10 1 8 7 -15 34 -29 34
-5 0 -14 -5 -21 -12z"/>
<path d="M4714 3149 c-18 -9 -54 -57 -54 -73 0 -3 16 4 35 15 21 13 44 19 57
16 28 -8 86 32 66 44 -18 12 -78 10 -104 -2z"/>
<path d="M3517 3134 c-12 -13 -7 -20 13 -20 11 0 19 5 17 10 -4 13 -21 18 -30
10z"/>
<path d="M3350 3118 c0 -7 11 -26 24 -43 l24 -30 36 17 c37 18 50 42 19 36
-10 -2 -17 -10 -15 -17 2 -9 -3 -9 -17 -2 -11 6 -21 14 -23 18 -3 5 -3 2 -2
-4 6 -23 -6 -14 -16 12 -10 26 -30 34 -30 13z"/>
<path d="M3440 3123 c0 -5 11 -13 25 -20 29 -13 34 1 6 17 -23 12 -31 13 -31
3z"/>
<path d="M280 3111 c74 -23 113 -65 80 -86 -13 -8 -52 4 -45 15 16 26 -86 20
-117 -7 -22 -20 -52 -9 -43 15 6 16 5 16 -12 -1 -17 -18 -17 -19 0 -32 26 -19
29 -80 5 -79 -35 2 -38 4 -38 22 0 14 -2 15 -10 2 -5 -8 -10 -26 -10 -39 0
-18 4 -22 18 -16 9 4 26 8 36 11 11 2 23 9 26 15 4 6 10 10 14 10 24 -3 27 1
21 30 -6 24 -4 30 5 24 8 -5 11 -4 7 2 -4 6 2 18 12 27 17 16 22 16 54 2 20
-8 41 -24 47 -36 l12 -22 16 22 c10 12 27 33 40 46 18 19 21 28 13 43 -13 24
-62 41 -115 40 -35 -1 -37 -2 -16 -8z"/>
<path d="M210 3100 c-8 -5 -10 -10 -5 -10 6 0 17 5 25 10 8 5 11 10 5 10 -5 0
-17 -5 -25 -10z"/>
<path d="M4110 3065 c14 -17 7 -45 -12 -45 -7 0 -24 9 -38 20 -33 26 -84 26
-110 0 -11 -11 -26 -20 -34 -20 -8 0 -18 -4 -21 -10 -3 -5 -2 -10 4 -10 5 0
12 -9 16 -19 7 -22 35 -18 35 5 0 17 39 44 66 44 24 0 54 -29 54 -53 0 -21
-26 -22 -46 -2 -9 8 -20 15 -25 15 -5 0 -9 -7 -9 -15 0 -8 -7 -15 -15 -15 -8
0 -12 -6 -10 -12 6 -15 129 -18 142 -4 4 5 0 6 -10 3 -31 -11 -10 29 39 77 24
24 41 46 37 49 -3 4 -22 7 -41 7 -29 0 -33 -2 -22 -15z"/>
<path d="M4641 3033 c-1 -23 32 -66 43 -55 3 3 6 -2 6 -11 0 -9 -3 -16 -7 -15
-5 0 -15 -1 -23 -5 -36 -14 -46 -13 -55 4 -9 15 -12 16 -29 3 -15 -10 -17 -17
-9 -25 9 -9 8 -15 -2 -25 -18 -18 -30 -18 -49 2 -9 9 -36 16 -65 18 l-50 2 50
-28 c52 -30 58 -41 34 -64 -13 -13 -17 -13 -37 5 -22 21 -48 28 -48 13 0 -5 9
-17 20 -27 21 -19 27 -50 11 -59 -5 -3 -11 1 -15 9 -3 8 -10 15 -17 15 -6 0
-9 -7 -5 -15 3 -8 1 -15 -4 -15 -6 0 -10 -3 -10 -7 0 -5 21 -9 47 -11 53 -3
109 -24 139 -53 l21 -20 32 27 c17 14 36 36 42 48 8 15 1 11 -24 -12 -30 -29
-38 -32 -56 -23 l-21 12 22 30 c13 17 37 37 55 46 18 8 33 23 34 32 0 12 2 12
9 -4 8 -18 9 -17 9 7 1 24 -2 26 -26 22 -36 -7 -62 -24 -104 -68 -29 -31 -38
-36 -64 -30 -16 3 -32 8 -34 10 -4 4 39 66 59 82 26 22 125 77 133 74 23 -7
47 21 47 55 0 23 6 41 17 49 10 7 15 15 12 18 -3 4 -18 -3 -32 -15 -15 -11
-27 -15 -27 -9 0 6 -4 9 -9 5 -5 -3 -12 3 -14 12 -4 14 -5 13 -6 -4z"/>
<path d="M2266 3023 c-16 -16 7 -63 31 -63 4 0 14 -9 20 -19 9 -15 9 -23 -1
-37 -13 -17 -15 -16 -42 5 -25 20 -29 21 -32 7 -4 -17 19 -76 28 -76 3 0 21
14 40 30 19 16 38 30 43 30 11 0 3 24 -13 37 -13 11 -13 12 3 7 9 -3 17 -2 17
2 0 13 -20 40 -20 29 -1 -5 -5 0 -11 13 -5 13 -13 20 -19 17 -5 -3 -10 -2 -10
3 0 12 -26 23 -34 15z"/>
<path d="M4223 3011 c-12 -11 -23 -18 -26 -15 -2 3 -7 -2 -10 -10 -4 -11 3
-21 23 -31 26 -13 29 -13 24 0 -4 10 3 18 21 25 14 5 23 14 20 20 -4 6 1 7 12
4 16 -5 16 -4 -1 10 -26 21 -38 20 -63 -3z"/>
<path d="M2435 2992 c-6 -4 -10 -16 -10 -26 0 -11 -8 -20 -18 -22 -26 -4 -33
-12 -19 -26 9 -9 17 -6 36 11 16 15 26 19 31 11 5 -8 11 -6 21 7 10 12 12 13
9 3 -4 -11 1 -16 15 -16 23 0 25 6 8 26 -7 8 -3 6 10 -4 12 -11 22 -14 22 -8
0 18 -34 32 -51 21 -20 -13 -29 -11 -29 5 0 18 -13 27 -25 18z"/>
<path d="M246 2975 c-24 -24 -20 -32 22 -39 58 -9 72 -7 72 11 0 13 -3 14 -12
5 -16 -16 -38 -15 -38 2 0 7 -6 19 -14 25 -11 9 -18 8 -30 -4z"/>
<path d="M401 2949 c-19 -15 -26 -17 -32 -7 -10 17 -23 3 -16 -17 4 -8 17 -15
31 -15 18 0 27 8 35 30 5 17 9 30 8 30 -1 -1 -13 -10 -26 -21z"/>
<path d="M3595 2961 c-61 -10 -72 -20 -39 -37 22 -12 29 -12 36 -2 4 7 8 8 8
3 0 -6 17 -11 38 -12 20 0 60 -4 87 -8 46 -8 49 -7 36 9 -8 9 -20 15 -27 12
-8 -3 -20 4 -28 16 -16 23 -49 29 -111 19z"/>
<path d="M3831 2941 c-9 -16 -7 -17 15 -13 19 3 22 7 13 18 -15 18 -16 18 -28
-5z"/>
<path d="M4293 2940 c-34 -20 -38 -31 -23 -65 6 -14 9 -15 9 -5 1 9 21 24 46
34 38 16 43 21 34 37 -12 24 -26 24 -66 -1z"/>
<path d="M4142 2931 c-10 -6 -5 -14 21 -30 19 -11 39 -21 46 -21 6 0 11 -5 11
-11 0 -5 5 -7 12 -3 7 5 2 15 -18 31 -16 12 -24 23 -19 23 13 0 -17 20 -30 20
-5 0 -16 -4 -23 -9z"/>
<path d="M3482 2899 c-23 -9 -29 -24 -13 -33 14 -9 69 5 75 19 6 16 -33 25
-62 14z"/>
<path d="M207 2869 c-9 -6 -22 -7 -29 -3 -7 5 -9 2 -5 -9 4 -11 2 -14 -8 -11
-8 3 -21 2 -30 -3 -14 -8 -14 -11 3 -26 18 -16 20 -16 42 3 27 23 38 26 20 5
-10 -12 -7 -13 22 -5 53 16 92 12 142 -15 49 -26 71 -32 61 -15 -3 6 1 7 9 4
9 -3 16 -2 16 4 0 13 -29 24 -42 15 -6 -3 -8 -1 -4 5 11 18 -15 26 -86 25 -47
-1 -66 2 -61 9 4 7 0 9 -10 5 -9 -3 -17 0 -19 8 -2 10 -8 11 -21 4z"/>
<path d="M3215 2871 c-3 -6 -13 -7 -23 -4 -15 6 -15 5 -2 -8 11 -10 39 -15 98
-15 45 0 82 1 82 3 0 17 -145 39 -155 24z"/>
<path d="M3980 2865 c1 -26 22 -39 60 -36 13 1 13 2 0 11 -11 7 -12 10 -2 10
8 0 12 5 10 12 -5 15 -68 18 -68 3z"/>
<path d="M2453 2863 c-7 -2 -13 -9 -13 -14 0 -6 9 -5 23 1 21 11 21 11 2 -5
-17 -13 -21 -14 -30 -2 -11 16 -48 14 -53 -2 -2 -6 -10 -11 -18 -11 -8 0 -14
-4 -14 -9 0 -5 -10 -12 -22 -15 -22 -7 -22 -7 -3 -16 26 -11 58 -12 51 -2 -5
8 110 38 128 33 10 -2 46 28 46 39 0 8 -79 11 -97 3z"/>
<path d="M4349 2851 c0 -12 -2 -12 -6 -3 -4 10 -11 8 -29 -9 -24 -22 -24 -22
-39 -3 -9 12 -14 14 -15 6 0 -8 9 -25 20 -39 25 -32 25 -40 0 -48 -22 -7 -109
41 -110 61 0 13 -68 46 -81 39 -14 -9 -11 -45 5 -45 7 0 25 -9 40 -21 14 -11
31 -17 38 -13 7 4 10 3 5 -1 -4 -5 0 -17 10 -27 15 -17 15 -19 0 -36 -27 -29
-9 -33 36 -8 36 20 83 37 109 40 10 1 37 39 38 51 0 6 -9 -3 -20 -20 -18 -27
-26 -27 -21 -1 1 5 -2 12 -8 15 -11 7 6 31 34 47 24 13 30 31 10 31 -8 0 -15
-7 -16 -16z"/>
<path d="M3140 2853 c-8 -3 -25 -15 -37 -26 -13 -11 -23 -17 -23 -13 0 5 -7 3
-15 -4 -9 -7 -14 -19 -11 -27 3 -8 1 -11 -4 -8 -8 5 -30 -32 -30 -50 0 -10 66
-49 84 -50 14 -1 20 -8 18 -20 -2 -11 2 -15 10 -13 7 3 13 11 13 19 0 8 12 26
27 40 31 28 37 59 13 59 -15 0 -25 -6 -60 -37 -17 -16 -52 -17 -61 -2 -7 13
63 78 84 79 7 0 12 8 10 18 -1 9 1 23 5 30 9 13 2 14 -23 5z"/>
<path d="M220 2770 c-13 -10 -13 -11 0 -9 8 2 34 -3 58 -10 26 -7 48 -8 58 -3
14 8 14 10 1 15 -34 13 -103 17 -117 7z"/>
<path d="M1742 2772 c-10 -7 -10 -11 2 -21 8 -7 20 -10 25 -6 7 4 8 -1 4 -11
-5 -14 -3 -16 10 -11 48 19 52 20 32 4 -18 -14 -16 -14 29 -4 27 6 43 13 35
16 -7 2 -20 10 -27 18 -7 7 -19 13 -26 13 -8 0 -26 2 -42 5 -16 3 -35 2 -42
-3z"/>
<path d="M4002 2757 c2 -13 15 -24 33 -30 17 -5 39 -17 50 -26 19 -16 19 -16
2 9 -10 14 -20 32 -23 41 -3 10 -19 19 -35 21 -25 4 -30 2 -27 -15z"/>
<path d="M4100 2752 c0 -10 49 -57 53 -51 2 2 -9 17 -25 32 -15 15 -28 24 -28
19z"/>
<path d="M2812 2659 c-38 -15 -52 -25 -48 -35 3 -9 1 -12 -4 -9 -6 4 -17 -1
-26 -9 -8 -9 -12 -16 -7 -16 5 0 14 5 21 12 7 7 12 9 12 5 0 -4 15 0 33 10 31
16 180 26 171 11 -2 -4 0 -9 6 -13 5 -3 10 -1 10 6 0 6 16 -5 35 -25 19 -21
35 -33 35 -27 0 21 -49 62 -104 86 -67 30 -66 30 -134 4z m-7 -19 c-3 -5 -12
-10 -18 -10 -7 0 -6 4 3 10 19 12 23 12 15 0z"/>
<path d="M4000 2665 c0 -8 7 -15 15 -15 8 0 24 -9 35 -20 11 -11 20 -27 20
-35 0 -20 -30 -19 -45 2 -14 19 -35 10 -35 -16 0 -20 26 -31 72 -31 15 0 51
-9 80 -20 61 -23 61 -23 54 -11 -16 26 34 76 97 97 9 4 17 11 17 16 0 6 32 8
88 4 53 -4 93 -3 102 4 13 8 12 10 -3 10 -10 0 -16 4 -13 9 3 5 -8 11 -25 15
-112 22 -237 -22 -307 -108 -9 -11 -19 -13 -35 -7 -32 12 -32 35 2 70 33 34
24 54 -11 21 -12 -11 -24 -16 -27 -12 -10 14 -55 42 -68 42 -7 0 -13 -7 -13
-15z"/>
<path d="M2031 2640 c14 -31 19 -36 19 -24 0 6 -7 19 -16 30 -14 18 -14 18 -3
-6z"/>
<path d="M2689 2609 c-19 -19 -28 -34 -22 -40 6 -6 19 6 36 31 31 48 28 50
-14 9z"/>
<path d="M3060 2611 c0 -6 4 -13 10 -16 6 -3 7 1 4 9 -7 18 -14 21 -14 7z"/>
<path d="M2838 2580 c-32 -10 -88 -42 -88 -51 0 -13 -33 -19 -45 -9 -11 9 -12
7 -8 -9 3 -11 18 -27 35 -35 27 -14 30 -14 39 7 11 25 75 57 113 57 14 0 37
-5 51 -10 20 -8 32 -7 46 4 24 16 18 21 -48 41 -53 16 -57 17 -95 5z"/>
<path d="M2085 2566 c-17 -14 -18 -17 -5 -26 19 -12 47 -13 52 0 2 5 30 -4 63
-20 35 -18 69 -28 82 -25 l22 5 -22 23 c-41 41 -55 48 -114 53 -43 4 -63 1
-78 -10z"/>
<path d="M3958 2494 c-5 -4 -8 -16 -8 -28 0 -14 3 -17 11 -9 6 6 9 19 7 28 -1
9 -6 13 -10 9z"/>
<path d="M3994 2476 c0 -25 13 -36 45 -36 16 0 21 4 18 14 -3 8 1 13 10 12 9
0 18 5 21 13 3 10 -4 12 -31 9 -20 -2 -34 -1 -31 3 2 5 -4 7 -14 6 -11 0 -18
-9 -18 -21z"/>
<path d="M943 2484 c-8 -4 -6 -11 8 -25 14 -14 33 -19 71 -19 53 0 118 -18
118 -32 0 -4 12 -8 26 -8 14 0 23 -4 19 -10 -4 -6 5 -10 19 -10 23 0 25 2 14
19 -6 10 -35 33 -63 50 -41 25 -65 32 -125 36 -41 3 -80 2 -87 -1z"/>
<path d="M2423 2483 c-13 -2 -23 -8 -23 -13 0 -5 -8 -11 -19 -15 -10 -3 -40
-26 -66 -50 -41 -39 -49 -43 -68 -33 -37 19 -37 31 -4 61 24 21 26 25 9 17
-13 -7 -42 -29 -65 -51 -41 -38 -41 -39 -16 -39 34 0 125 -27 141 -43 7 -6 26
-19 41 -27 39 -20 91 -91 74 -102 -24 -15 -57 -8 -84 20 -59 58 -108 83 -171
87 -55 2 -61 1 -71 -22 -14 -31 -14 -36 1 -26 19 11 92 6 130 -10 42 -18 101
-73 96 -89 -8 -23 -39 -20 -66 5 -15 13 -36 29 -47 34 -29 15 -84 24 -89 15
-8 -13 11 -35 23 -28 7 4 10 2 9 -5 -2 -7 12 -18 30 -24 19 -6 38 -18 43 -26
5 -8 9 -11 9 -7 0 4 13 2 29 -3 25 -9 35 -6 68 14 61 40 108 50 199 44 60 -3
93 -11 123 -28 43 -24 63 -21 40 7 -12 14 -10 19 13 39 27 23 48 56 48 75 0
17 -59 -20 -83 -52 -21 -28 -58 -37 -85 -20 -13 9 5 39 53 87 20 21 84 58 118
69 9 3 17 12 17 21 0 12 -4 14 -19 6 -20 -11 -32 -3 -44 29 -4 11 -7 10 -12
-7 -7 -22 -7 -22 -39 8 -64 60 -173 98 -243 82z m157 -33 c8 -5 11 -10 5 -10
-5 0 6 -8 25 -18 40 -19 80 -59 80 -78 0 -23 -20 -26 -47 -7 -61 43 -77 51
-115 57 -45 7 -120 -22 -149 -57 -11 -14 -22 -17 -37 -13 -22 7 -31 36 -12 36
6 0 10 5 10 11 0 33 88 70 169 71 40 1 57 4 45 9 -13 5 -14 8 -4 8 8 0 22 -4
30 -9z m9 -127 c32 -25 36 -37 15 -58 -16 -16 -18 -16 -33 3 -23 30 -88 33
-115 7 -19 -19 -45 -19 -53 1 -7 18 31 61 61 68 38 8 99 -2 125 -21z m-47 -70
c10 -9 18 -24 18 -35 0 -20 -26 -25 -32 -6 -4 10 -10 10 -32 0 -46 -21 -61 3
-26 38 24 24 47 25 72 3z"/>
<path d="M3665 2460 c3 -5 8 -10 11 -10 2 0 4 5 4 10 0 6 -5 10 -11 10 -5 0
-7 -4 -4 -10z"/>
<path d="M865 2450 c-40 -16 -66 -50 -61 -78 2 -15 5 -31 5 -35 1 -4 22 -28
47 -52 36 -36 53 -45 81 -45 19 0 32 4 28 9 -3 6 11 13 31 17 32 6 40 3 56
-16 11 -13 17 -32 14 -42 -8 -32 13 -15 41 32 20 35 22 41 7 28 -18 -15 -21
-15 -49 8 -16 13 -41 24 -53 24 -26 0 -75 -33 -65 -44 3 -3 -1 -6 -11 -6 -23
0 -45 48 -27 60 23 13 -24 33 -48 20 -26 -13 -28 -13 -35 6 -7 17 13 40 66 76
37 24 43 43 10 31 -10 -4 -13 -2 -8 5 8 14 0 14 -29 2z"/>
<path d="M985 2385 c-3 -8 -7 -22 -10 -31 -4 -13 1 -15 35 -9 32 5 46 2 72
-16 18 -13 37 -28 41 -34 6 -6 7 -3 4 7 -3 9 -1 18 5 20 21 7 -1 37 -39 53
-56 24 -103 28 -108 10z"/>
<path d="M923 2376 c-13 -7 -20 -16 -16 -19 11 -12 22 -8 33 13 6 11 9 20 8
19 -2 -1 -13 -7 -25 -13z"/>
<path d="M1323 2284 c-9 -25 8 -34 71 -34 34 0 67 -5 74 -12 9 -9 17 -8 37 2
14 7 25 17 25 21 0 26 -197 48 -207 23z"/>
<path d="M1735 2290 c-4 -6 9 -10 32 -10 28 0 34 3 23 10 -20 13 -47 13 -55 0z"/>
<path d="M2051 2283 c3 -20 -2 -27 -10 -14 -6 9 -14 11 -26 4 -15 -9 -14 -11
12 -20 25 -9 30 -8 40 13 9 19 8 24 -3 24 -8 0 -13 -3 -13 -7z"/>
<path d="M3213 2264 c3 -3 -7 -17 -24 -31 -16 -14 -34 -35 -40 -47 -8 -14 -1
-11 21 12 18 17 41 32 52 32 18 0 18 -2 4 -22 -9 -12 -16 -36 -16 -53 1 -29 1
-29 15 10 8 22 15 41 15 43 0 1 9 2 19 2 41 0 34 27 -12 48 -30 13 -44 16 -34
6z"/>
<path d="M1173 2253 c-14 -5 -2 -35 24 -61 7 -7 13 -20 13 -28 0 -8 7 -14 15
-14 8 0 12 6 9 13 -3 8 7 19 23 26 21 10 24 14 12 22 -12 7 -12 9 1 10 10 0 8
3 -5 9 -11 4 -24 4 -29 -1 -15 -14 -36 -11 -36 5 0 18 -11 25 -27 19z"/>
<path d="M3840 2239 c0 -4 -6 -9 -12 -12 -7 -2 -5 -3 5 -2 9 2 17 -1 17 -6 0
-13 24 -11 45 5 17 12 16 14 -18 18 -20 2 -37 1 -37 -3z"/>
<path d="M3908 2218 c-10 -10 -14 -18 -9 -18 10 0 36 29 30 34 -2 1 -12 -6
-21 -16z"/>
<path d="M1360 2200 c0 -5 6 -10 14 -10 8 0 18 5 21 10 3 6 -3 10 -14 10 -12
0 -21 -4 -21 -10z"/>
<path d="M3738 2203 c7 -3 16 -2 19 1 4 3 -2 6 -13 5 -11 0 -14 -3 -6 -6z"/>
<path d="M3818 2153 c7 -3 16 -2 19 1 4 3 -2 6 -13 5 -11 0 -14 -3 -6 -6z"/>
<path d="M3440 2140 c0 -6 7 -10 15 -10 8 0 15 2 15 4 0 2 -7 6 -15 10 -8 3
-15 1 -15 -4z"/>
<path d="M2424 2092 c-22 -9 -54 -26 -71 -36 -28 -18 -29 -20 -14 -37 16 -20
37 -26 26 -9 -3 6 0 10 7 10 7 0 24 9 38 20 20 16 41 20 103 20 42 0 77 -4 77
-10 0 -5 17 -12 37 -16 35 -7 36 -8 15 -17 -35 -16 -26 -34 20 -41 48 -8 77 9
34 20 -22 5 -27 11 -24 32 7 60 -157 102 -248 64z"/>
<path d="M1180 2039 c31 -24 143 -80 149 -73 2 2 -19 14 -47 26 -86 36 -63 50
38 23 30 -8 56 -13 58 -11 6 7 -188 57 -216 56 -4 0 4 -10 18 -21z"/>
<path d="M1150 2011 c0 -29 14 -42 38 -33 17 6 15 19 -8 42 -26 26 -30 25 -30
-9z"/>
<path d="M2445 2000 c-46 -18 -48 -19 -20 -21 32 -2 63 -2 81 0 5 0 19 8 30
17 19 15 18 15 -3 11 -13 -3 -23 -1 -23 4 0 12 -6 11 -65 -11z"/>
<path d="M1420 2002 c0 -14 63 -33 74 -22 7 7 3 10 -11 10 -12 0 -25 5 -28 10
-7 12 -35 14 -35 2z"/>
<path d="M1362 1968 c-17 -17 -15 -25 8 -31 13 -3 18 -1 13 6 -4 7 0 8 11 4
10 -4 20 -7 22 -7 3 0 2 -5 -2 -11 -4 -7 -1 -10 7 -7 23 8 38 -16 45 -72 5
-40 12 -53 28 -60 12 -4 26 -6 31 -3 6 2 20 -5 30 -15 11 -10 28 -21 38 -25
37 -14 12 27 -32 53 -46 26 -75 63 -32 41 12 -7 26 -9 32 -5 6 4 16 0 21 -7 8
-12 9 -11 5 1 -2 8 -15 15 -31 15 -26 1 -86 49 -75 60 3 3 22 -1 42 -10 31
-13 107 -11 93 2 -6 7 -154 44 -163 41 -16 -4 -51 13 -57 27 -7 18 -18 19 -34
3z m215 -74 c-3 -3 -12 -4 -19 -1 -8 3 -5 6 6 6 11 1 17 -2 13 -5z"/>
<path d="M1767 1946 c-3 -8 -16 -16 -29 -19 -17 -3 -15 -5 10 -6 26 -1 32 3
32 19 0 23 -6 26 -13 6z"/>
<path d="M2550 1952 c0 -14 25 -22 70 -22 34 0 39 -4 49 -32 12 -35 8 -46 -11
-31 -7 6 -28 14 -45 18 -39 8 -39 5 -17 -71 17 -61 43 -84 91 -84 36 0 38 2
23 31 -10 17 -7 19 30 19 22 0 40 2 40 5 0 3 -7 22 -16 43 -9 20 -18 46 -19
56 -2 22 -31 46 -55 46 -9 0 -21 5 -26 10 -15 15 -114 25 -114 12z m150 -143
c0 -6 -4 -7 -10 -4 -5 3 -10 11 -10 16 0 6 5 7 10 4 6 -3 10 -11 10 -16z"/>
<path d="M1330 1908 c0 -15 5 -30 10 -33 13 -8 13 25 0 45 -8 12 -10 9 -10
-12z"/>
<path d="M2081 1884 c0 -11 3 -14 6 -6 3 7 2 16 -1 19 -3 4 -6 -2 -5 -13z"/>
<path d="M1654 1883 c7 -7 161 -50 211 -58 53 -9 -1 11 -105 39 -99 27 -118
31 -106 19z"/>
<path d="M1397 1864 c-8 -8 1 -24 14 -24 5 0 9 7 9 15 0 15 -12 20 -23 9z"/>
<path d="M1640 1860 c0 -12 28 -25 36 -17 3 3 -4 10 -15 17 -15 7 -21 7 -21 0z"/>
<path d="M1330 1856 c0 -2 7 -7 16 -10 8 -3 12 -2 9 4 -6 10 -25 14 -25 6z"/>
<path d="M1607 1836 c-3 -8 0 -17 7 -19 20 -8 26 -59 11 -90 -8 -15 -10 -25
-5 -22 5 3 11 1 15 -5 9 -15 48 -13 39 3 -4 7 -3 9 2 4 5 -5 9 -14 9 -20 0 -7
11 -11 23 -10 13 2 21 -1 17 -7 -3 -6 3 -10 15 -10 12 0 42 -12 66 -26 50 -30
71 -25 31 6 -14 11 -28 34 -32 50 -4 17 -11 30 -16 30 -12 0 -11 -7 1 -31 19
-34 -5 -25 -103 39 -34 22 -38 30 -35 60 2 26 -2 38 -18 49 -19 12 -22 12 -27
-1z"/>
<path d="M1935 1810 c-4 -7 103 -35 110 -28 2 2 -21 11 -51 19 -30 9 -56 13
-59 9z"/>
<path d="M1806 1785 c-3 -8 -1 -15 4 -15 6 0 10 7 10 15 0 8 -2 15 -4 15 -2 0
-6 -7 -10 -15z"/>
<path d="M2465 1790 c-13 -6 -15 -9 -5 -9 8 0 22 4 30 9 18 12 2 12 -25 0z"/>
<path d="M1725 1770 c3 -5 8 -10 11 -10 2 0 4 5 4 10 0 6 -5 10 -11 10 -5 0
-7 -4 -4 -10z"/>
<path d="M2140 1751 c30 -10 73 -21 95 -24 36 -6 37 -5 10 4 -57 19 -90 27
-125 33 -24 4 -18 0 20 -13z"/>
<path d="M2362 1729 c-7 -11 -19 -18 -27 -15 -8 3 -17 1 -20 -5 -4 -5 0 -12 8
-15 15 -5 87 34 87 49 0 16 -36 6 -48 -14z"/>
<path d="M2748 1743 c12 -2 30 -2 40 0 9 3 -1 5 -23 4 -22 0 -30 -2 -17 -4z"/>
<path d="M1873 1723 c-10 -4 -10 -9 1 -24 8 -11 12 -29 9 -40 -3 -10 0 -19 6
-19 6 0 11 9 11 20 0 11 4 20 9 20 4 0 6 11 3 25 -4 24 -14 29 -39 18z"/>
<path d="M2745 1720 c3 -5 15 -10 25 -10 10 0 22 5 25 10 4 6 -7 10 -25 10
-18 0 -29 -4 -25 -10z"/>
<path d="M2845 1720 c11 -5 27 -9 35 -9 9 0 8 4 -5 9 -11 5 -27 9 -35 9 -9 0
-8 -4 5 -9z"/>
<path d="M1365 1710 c-3 -5 -1 -10 4 -10 6 0 11 5 11 10 0 6 -2 10 -4 10 -3 0
-8 -4 -11 -10z"/>
<path d="M2607 1713 c-18 -18 1 -30 67 -43 42 -9 69 -3 60 11 -3 5 5 9 18 9
15 0 19 3 11 8 -7 4 -30 6 -50 3 -35 -4 -36 -5 -13 -13 19 -6 15 -7 -15 -3
-22 2 -45 11 -51 20 -12 17 -17 18 -27 8z"/>
<path d="M1399 1710 c-5 -29 -4 -50 3 -50 15 0 21 31 9 43 -6 6 -11 9 -12 7z"/>
<path d="M2648 1703 c7 -3 16 -2 19 1 4 3 -2 6 -13 5 -11 0 -14 -3 -6 -6z"/>
<path d="M1885 1600 c-14 -23 5 -48 38 -47 35 0 132 -55 132 -76 0 -7 6 -12
13 -11 6 1 22 2 34 3 20 1 21 2 3 21 -17 19 -17 20 1 20 10 1 -8 14 -41 30
-71 35 -76 36 -42 10 14 -11 30 -20 36 -20 6 0 11 -4 11 -10 0 -16 -5 -13 -91
40 -90 56 -85 54 -94 40z"/>
<path d="M2260 1579 c0 -6 -6 -9 -14 -6 -7 3 -19 0 -25 -6 -9 -9 -14 -9 -20 2
-6 9 -11 10 -15 2 -4 -6 -3 -11 3 -11 5 0 17 -7 25 -16 15 -14 13 -18 -19 -48
-19 -19 -35 -40 -35 -47 0 -8 8 -4 20 11 22 29 37 22 20 -10 -9 -18 -9 -24 0
-30 9 -6 9 -9 -1 -13 -9 -4 -8 -6 5 -6 14 -1 17 4 13 22 -10 36 6 51 47 43 34
-7 36 -6 34 21 -1 15 -10 36 -20 46 -12 12 -17 26 -13 38 4 10 4 19 1 19 -3 0
-6 -5 -6 -11z m20 -85 c0 -8 -4 -14 -10 -14 -5 0 -10 9 -10 21 0 11 5 17 10
14 6 -3 10 -13 10 -21z"/>
<path d="M2885 1570 c3 -5 8 -10 11 -10 2 0 4 5 4 10 0 6 -5 10 -11 10 -5 0
-7 -4 -4 -10z"/>
<path d="M2923 1556 c-13 -6 -23 -16 -23 -23 0 -18 14 -16 41 5 26 22 14 33
-18 18z"/>
<path d="M3515 1560 c-3 -5 3 -10 14 -10 12 0 21 5 21 10 0 6 -6 10 -14 10 -8
0 -18 -4 -21 -10z"/>
<path d="M3470 1540 c0 -5 5 -10 10 -10 6 0 10 5 10 10 0 6 -4 10 -10 10 -5 0
-10 -4 -10 -10z"/>
<path d="M3420 1520 c0 -5 5 -10 11 -10 5 0 7 5 4 10 -3 6 -8 10 -11 10 -2 0
-4 -4 -4 -10z"/>
<path d="M2365 1457 c-4 -10 -5 -21 -1 -24 10 -10 18 4 13 24 -4 17 -4 17 -12
0z"/>
<path d="M3054 1445 c11 -8 29 -15 40 -15 26 0 16 9 -25 20 -31 9 -32 8 -15
-5z"/>
<path d="M2922 1423 c-23 -57 -25 -82 -8 -89 25 -9 14 -50 -13 -46 -11 2 -21
-2 -21 -7 0 -6 7 -11 15 -11 18 0 20 -16 3 -23 -7 -3 3 -6 22 -7 19 -1 27 -4
18 -7 -19 -5 -13 -33 7 -33 18 0 25 81 8 87 -12 5 -19 33 -8 33 3 0 25 -9 47
-20 23 -11 46 -20 51 -20 17 0 -19 27 -52 38 -68 24 -84 53 -57 105 8 15 11
27 7 27 -5 0 -13 -12 -19 -27z"/>
<path d="M2567 1403 c-11 -10 -8 -43 3 -43 6 0 10 11 10 25 0 26 -2 29 -13 18z"/>
<path d="M3510 1406 c0 -2 7 -9 15 -16 13 -11 14 -10 9 4 -5 14 -24 23 -24 12z"/>
<path d="M3537 1364 c-4 -4 -7 -14 -7 -23 0 -11 3 -12 11 -4 6 6 10 16 7 23
-2 6 -7 8 -11 4z"/>
<path d="M2470 1330 c0 -5 5 -10 11 -10 5 0 7 5 4 10 -3 6 -8 10 -11 10 -2 0
-4 -4 -4 -10z"/>
<path d="M2726 1331 c-4 -7 -5 -15 -2 -18 9 -9 19 4 14 18 -4 11 -6 11 -12 0z"/>
<path d="M2850 1326 c0 -9 7 -16 16 -16 17 0 14 22 -4 28 -7 2 -12 -3 -12 -12z"/>
<path d="M3060 1300 c0 -5 4 -10 9 -10 6 0 13 5 16 10 3 6 -1 10 -9 10 -9 0
-16 -4 -16 -10z"/>
<path d="M2798 1259 c-22 -38 -23 -50 -3 -43 8 4 13 10 10 14 -8 13 6 40 22
40 8 0 11 5 8 10 -10 16 -19 12 -37 -21z"/>
<path d="M3170 1270 c0 -5 5 -10 11 -10 5 0 7 5 4 10 -3 6 -8 10 -11 10 -2 0
-4 -4 -4 -10z"/>
<path d="M3510 1261 c-5 -11 -10 -30 -10 -43 0 -13 -5 -30 -10 -38 -9 -13 -11
-13 -20 0 -9 12 -10 10 -8 -10 4 -34 -31 -49 -132 -57 -49 -4 -76 -9 -68 -14
24 -16 122 -8 188 15 63 22 65 23 62 54 -2 18 1 32 6 32 6 0 12 18 14 40 4 43
-5 52 -22 21z"/>
<path d="M3018 1263 c7 -3 16 -2 19 1 4 3 -2 6 -13 5 -11 0 -14 -3 -6 -6z"/>
<path d="M3110 1262 c0 -9 -7 -11 -20 -7 -11 3 -20 2 -20 -3 0 -8 60 -24 67
-18 2 2 -4 11 -12 22 -9 12 -14 14 -15 6z"/>
<path d="M3415 1230 c-3 -5 -18 -11 -33 -11 -18 -1 -21 -3 -9 -6 24 -6 67 5
67 17 0 13 -17 13 -25 0z"/>
<path d="M2821 1207 c0 -10 -7 -17 -13 -15 -7 1 -31 -8 -53 -20 -37 -20 -38
-22 -10 -16 23 4 26 3 15 -5 -19 -14 0 -14 34 -1 21 7 24 6 19 -6 -4 -10 -1
-15 8 -14 8 1 25 2 38 1 24 -1 24 -1 5 -17 -19 -15 -19 -16 1 -8 38 13 73 16
79 5 7 -11 36 -4 36 9 0 4 -11 11 -25 14 -41 10 -29 25 13 15 51 -12 51 -12
45 11 -8 30 -69 43 -98 20 -14 -11 -76 -10 -70 1 4 5 2 9 -4 9 -5 0 -12 8 -14
18 -4 16 -5 16 -6 -1z"/>
<path d="M3065 1135 c-3 -8 -7 -22 -10 -30 -2 -9 2 -15 10 -15 8 0 14 6 13 13
-3 12 5 13 107 2 49 -5 50 -5 20 10 -16 8 -47 14 -67 15 -21 0 -38 5 -38 10 0
16 -30 12 -35 -5z"/>
<path d="M3000 1110 c8 -5 22 -10 30 -10 13 0 13 1 0 10 -8 5 -22 10 -30 10
-13 0 -13 -1 0 -10z"/>
<path d="M3479 1104 c-7 -9 -22 -20 -34 -24 -16 -7 -17 -9 -3 -9 9 -1 30 10
45 24 15 13 23 25 17 25 -6 0 -18 -7 -25 -16z"/>
<path d="M1533 1076 c-15 -13 -26 -26 -23 -28 3 -2 18 9 34 24 35 34 27 37
-11 4z"/>
<path d="M2711 1056 c-7 -9 -8 -17 -2 -20 13 -9 43 4 38 17 -5 17 -23 19 -36
3z"/>
<path d="M3268 1053 c6 -2 9 -10 6 -15 -4 -7 -2 -8 4 -4 18 11 14 26 -5 25
-11 0 -13 -3 -5 -6z"/>
<path d="M2470 980 c0 -5 6 -11 13 -14 6 -3 0 -4 -15 -1 -37 7 -39 -22 -3 -31
30 -8 34 -5 37 25 2 16 -3 25 -14 26 -10 2 -18 0 -18 -5z"/>
<path d="M2411 938 c-1 -18 45 -55 55 -45 10 10 -6 27 -26 27 -10 0 -21 8 -23
18 -4 16 -5 16 -6 0z"/>
<path d="M228 933 c7 -3 16 -2 19 1 4 3 -2 6 -13 5 -11 0 -14 -3 -6 -6z"/>
<path d="M275 920 c28 -12 37 -12 30 0 -3 6 -16 10 -28 9 -21 0 -21 -1 -2 -9z"/>
<path d="M330 916 c0 -2 9 -6 20 -9 11 -3 20 -1 20 4 0 5 -9 9 -20 9 -11 0
-20 -2 -20 -4z"/>
<path d="M2480 891 c0 -5 7 -11 15 -15 8 -3 15 -1 15 3 0 5 -7 11 -15 15 -8 3
-15 1 -15 -3z"/>
<path d="M2785 879 c-10 -15 1 -23 20 -15 9 3 13 10 10 16 -8 13 -22 13 -30
-1z"/>
<path d="M2040 705 c-14 -16 -3 -20 19 -6 8 5 9 11 3 15 -5 3 -15 -1 -22 -9z"/>
<path d="M1520 553 c0 -5 5 -15 10 -23 8 -12 10 -11 10 8 0 12 -4 22 -10 22
-5 0 -10 -3 -10 -7z"/>
</g>
</svg>
